<svg width="211.2125px" height="336.8px" xmlns="http://www.w3.org/2000/svg" viewBox="144.39375 -93.4 211.2125 336.8" style="background: rgba(0, 0, 0, 0);" preserveAspectRatio="xMidYMid"><defs><filter id="editing-extrude-glow"><feFlood flood-color="#333333" result="flood-1"></feFlood><feMorphology operator="erode" radius="1" in="SourceAlpha" result="erode"></feMorphology><feComposite operator="in" in="flood-1" in2="erode" result="comp1"></feComposite><feConvolveMatrix order="0,0" divisor="1" in="comp1" result="convolve" kernelMatrix=""></feConvolveMatrix><feOffset dx="0" dy="0" in="convolve" result="extrude"></feOffset><feComposite operator="in" in="flood-1" in2="extrude" result="comp-extrude"></feComposite><feFlood flood-color="#000000" result="flood-2"></feFlood><feComposite operator="in" in="flood-2" in2="SourceAlpha" result="comp2"></feComposite><feMorphology operator="dilate" radius="1" in="comp2" result="dilate"></feMorphology><feOffset dx="0" dy="0" in="dilate" result="offset"></feOffset><feGaussianBlur in="offset" stdDeviation="5.8" result="blur"></feGaussianBlur><feComponentTransfer in="blur" result="shadow"><feFuncA type="linear" slope="0.8" intercept="-0.2"></feFuncA></feComponentTransfer><feMerge><feMergeNode in="shadow"></feMergeNode><feMergeNode in="comp-extrude"></feMergeNode><feMergeNode in="SourceGraphic"></feMergeNode></feMerge></filter></defs><g filter="url(#editing-extrude-glow)"><g transform="translate(176.60000610351562, 161)"><path d="M22.60 2.60L27-12L27-12Q34-8.20 44.40-8.20L44.40-8.20L44.40-8.20Q54.80-8.20 63.50-14.50L63.50-14.50L63.50-14.50Q72.20-20.80 78.40-32.40L78.40-32.40L78.40-32.40Q91.20-57 91.20-96.60L91.20-96.60L91.20-96.60Q91.20-121.80 79.80-121.80L79.80-121.80L79.80-121.80Q73.80-121.80 68-115.20L68-115.20L68-115.20Q62.20-108.60 57.60-98L57.60-98L57.60-98Q47.60-73.80 47.60-45.40L47.60-45.40L47.60-45.40Q47.60-39.60 50.40-36.10L50.40-36.10L50.40-36.10Q53.20-32.60 58.20-32.60L58.20-32.60L58.20-32.60Q57.40-26.40 52-22L52-22L52-22Q46.60-17.60 39.80-17.60L39.80-17.60L39.80-17.60Q23.60-17.60 15.30-27.70L15.30-27.70L15.30-27.70Q7-37.80 7-56.10L7-56.10L7-56.10Q7-74.40 12.60-88.80L12.60-88.80L12.60-88.80Q18.20-103.20 28-113.70L28-113.70L28-113.70Q37.80-124.20 51.30-130.20L51.30-130.20L51.30-130.20Q64.80-136.20 80.80-136.20L80.80-136.20L80.80-136.20Q134.40-136.20 134.40-84L134.40-84L134.40-84Q134.40-46.40 116.40-23.40L116.40-23.40L116.40-23.40Q98.40-0.20 67.20 2.60L67.20 2.60L67.20 2.60Q85.60 6.60 104.20 6.60L104.20 6.60L104.20 6.60Q118.80 6.60 129.60 0.40L129.60 0.40L129.60 0.40Q132.60-1.40 133.80-3.40L133.80-3.40L133.80-3.40Q139.80 2 139.80 12.70L139.80 12.70L139.80 12.70Q139.80 23.40 130.30 29.60L130.30 29.60L130.30 29.60Q120.80 35.80 102.30 35.80L102.30 35.80L102.30 35.80Q83.80 35.80 62.40 27.20L62.40 27.20L62.40 27.20Q41 18.60 22.60 2.60L22.60 2.60Z" fill="#2f855a"></path></g></g><style>text {
  font-size: 64px;
  font-family: Arial Black;
  dominant-baseline: central;
  text-anchor: middle;
}</style></svg>